<svg width="128" height="128" viewBox="0 0 128 128" fill="none" xmlns="http://www.w3.org/2000/svg">
<rect width="128" height="128" rx="18" fill="#4A102A"/>
<mask id="path-2-outside-1_9_23" maskUnits="userSpaceOnUse" x="11" y="21" width="105" height="92" fill="black">
<rect fill="white" x="11" y="21" width="105" height="92"/>
<path d="M60.24 111.8H58.84L34.06 81.56C24.82 70.22 22.44 65.18 22.44 61.12C22.44 58.04 24.54 56.64 29.58 56.64C32.24 56.64 38.26 57.06 41.62 57.48C42.6 52.86 42.74 46.14 42.74 41.52C42.74 37.46 42.6 34.94 42.46 32.7H16.84L12.08 23.6V22.2H110.22L114.98 31.3V32.7H98.6L98.88 110.4H97.48L86.28 103.12L86.42 75.54C82.64 76.94 78.44 77.64 74.38 77.64C69.2 77.64 60.8 76.52 50.16 67.98C47.78 72.18 44.14 74.7 38.26 75.82L67.38 105.92L60.24 111.8ZM86.56 61.68L86.84 32.7H53.8C54.08 36.2 54.22 41.38 54.22 43.06C54.22 51.32 53.52 58.18 52.4 62.38C55.9 64.48 64.44 66.86 70.74 66.86C77.32 66.86 83.48 64.2 86.56 61.68Z"/>
</mask>
<g filter="url(#filter0_i_9_23)">
<path d="M60.24 111.8H58.84L34.06 81.56C24.82 70.22 22.44 65.18 22.44 61.12C22.44 58.04 24.54 56.64 29.58 56.64C32.24 56.64 38.26 57.06 41.62 57.48C42.6 52.86 42.74 46.14 42.74 41.52C42.74 37.46 42.6 34.94 42.46 32.7H16.84L12.08 23.6V22.2H110.22L114.98 31.3V32.7H98.6L98.88 110.4H97.48L86.28 103.12L86.42 75.54C82.64 76.94 78.44 77.64 74.38 77.64C69.2 77.64 60.8 76.52 50.16 67.98C47.78 72.18 44.14 74.7 38.26 75.82L67.38 105.92L60.24 111.8ZM86.56 61.68L86.84 32.7H53.8C54.08 36.2 54.22 41.38 54.22 43.06C54.22 51.32 53.52 58.18 52.4 62.38C55.9 64.48 64.44 66.86 70.74 66.86C77.32 66.86 83.48 64.2 86.56 61.68Z" fill="#FCF259"/>
</g>
<path d="M60.24 111.8V112.8H60.5988L60.8757 112.572L60.24 111.8ZM58.84 111.8L58.0665 112.434L58.3666 112.8H58.84V111.8ZM34.06 81.56L33.2848 82.1917L33.2865 82.1938L34.06 81.56ZM41.62 57.48L41.496 58.4723L42.4076 58.5862L42.5982 57.6875L41.62 57.48ZM42.46 32.7L43.4581 32.6376L43.3995 31.7H42.46V32.7ZM16.84 32.7L15.9539 33.1635L16.2345 33.7H16.84V32.7ZM12.08 23.6H11.08V23.8457L11.1939 24.0635L12.08 23.6ZM12.08 22.2V21.2H11.08V22.2H12.08ZM110.22 22.2L111.106 21.7365L110.825 21.2H110.22V22.2ZM114.98 31.3H115.98V31.0543L115.866 30.8365L114.98 31.3ZM114.98 32.7V33.7H115.98V32.7H114.98ZM98.6 32.7V31.7H97.5964L97.6 32.7036L98.6 32.7ZM98.88 110.4V111.4H99.8836L99.88 110.396L98.88 110.4ZM97.48 110.4L96.935 111.238L97.1836 111.4H97.48V110.4ZM86.28 103.12L85.28 103.115L85.2772 103.661L85.735 103.958L86.28 103.12ZM86.42 75.54L87.42 75.5451L87.4273 74.1005L86.0727 74.6023L86.42 75.54ZM50.16 67.98L50.7859 67.2001L49.8694 66.4645L49.29 67.487L50.16 67.98ZM38.26 75.82L38.0729 74.8377L36.2535 75.1842L37.5413 76.5153L38.26 75.82ZM67.38 105.92L68.0157 106.692L68.8519 106.003L68.0987 105.225L67.38 105.92ZM86.56 61.68L87.1932 62.454L87.5554 62.1576L87.56 61.6897L86.56 61.68ZM86.84 32.7L87.84 32.7097L87.8497 31.7H86.84V32.7ZM53.8 32.7V31.7H52.7168L52.8032 32.7797L53.8 32.7ZM52.4 62.38L51.4338 62.1223L51.2397 62.85L51.8855 63.2375L52.4 62.38ZM60.24 111.8V110.8H58.84V111.8V112.8H60.24V111.8ZM58.84 111.8L59.6135 111.166L34.8335 80.9262L34.06 81.56L33.2865 82.1938L58.0665 112.434L58.84 111.8ZM34.06 81.56L34.8352 80.9283C30.2268 75.2725 27.3673 71.2332 25.6614 68.1284C23.963 65.0373 23.44 62.9295 23.44 61.12H22.44H21.44C21.44 63.3705 22.107 65.8127 23.9086 69.0915C25.7027 72.3568 28.6532 76.5075 33.2848 82.1917L34.06 81.56ZM22.44 61.12H23.44C23.44 59.8462 23.8489 59.0828 24.6569 58.5687C25.5642 57.9913 27.11 57.64 29.58 57.64V56.64V55.64C27.01 55.64 24.9858 55.9887 23.5831 56.8813C22.0811 57.8372 21.44 59.3138 21.44 61.12H22.44ZM29.58 56.64V57.64C32.1891 57.64 38.1666 58.0561 41.496 58.4723L41.62 57.48L41.744 56.4877C38.3534 56.0639 32.2909 55.64 29.58 55.64V56.64ZM41.62 57.48L42.5982 57.6875C43.6032 52.95 43.74 46.1287 43.74 41.52H42.74H41.74C41.74 46.1513 41.5969 52.77 40.6418 57.2725L41.62 57.48ZM42.74 41.52H43.74C43.74 37.4322 43.5988 34.8899 43.4581 32.6376L42.46 32.7L41.4619 32.7624C41.6012 34.9901 41.74 37.4878 41.74 41.52H42.74ZM42.46 32.7V31.7H16.84V32.7V33.7H42.46V32.7ZM16.84 32.7L17.7261 32.2365L12.9661 23.1365L12.08 23.6L11.1939 24.0635L15.9539 33.1635L16.84 32.7ZM12.08 23.6H13.08V22.2H12.08H11.08V23.6H12.08ZM12.08 22.2V23.2H110.22V22.2V21.2H12.08V22.2ZM110.22 22.2L109.334 22.6635L114.094 31.7635L114.98 31.3L115.866 30.8365L111.106 21.7365L110.22 22.2ZM114.98 31.3H113.98V32.7H114.98H115.98V31.3H114.98ZM114.98 32.7V31.7H98.6V32.7V33.7H114.98V32.7ZM98.6 32.7L97.6 32.7036L97.88 110.404L98.88 110.4L99.88 110.396L99.6 32.6964L98.6 32.7ZM98.88 110.4V109.4H97.48V110.4V111.4H98.88V110.4ZM97.48 110.4L98.025 109.562L86.825 102.282L86.28 103.12L85.735 103.958L96.935 111.238L97.48 110.4ZM86.28 103.12L87.28 103.125L87.42 75.5451L86.42 75.54L85.42 75.5349L85.28 103.115L86.28 103.12ZM86.42 75.54L86.0727 74.6023C82.4121 75.958 78.3306 76.64 74.38 76.64V77.64V78.64C78.5494 78.64 82.8679 77.922 86.7673 76.4777L86.42 75.54ZM74.38 77.64V76.64C69.4 76.64 61.2281 75.5813 50.7859 67.2001L50.16 67.98L49.5341 68.7599C60.3719 77.4587 69 78.64 74.38 78.64V77.64ZM50.16 67.98L49.29 67.487C47.0783 71.39 43.7149 73.763 38.0729 74.8377L38.26 75.82L38.4471 76.8023C44.5651 75.637 48.4817 72.97 51.03 68.473L50.16 67.98ZM38.26 75.82L37.5413 76.5153L66.6613 106.615L67.38 105.92L68.0987 105.225L38.9787 75.1247L38.26 75.82ZM67.38 105.92L66.7443 105.148L59.6043 111.028L60.24 111.8L60.8757 112.572L68.0157 106.692L67.38 105.92ZM86.56 61.68L87.56 61.6897L87.84 32.7097L86.84 32.7L85.8401 32.6903L85.56 61.6703L86.56 61.68ZM86.84 32.7V31.7H53.8V32.7V33.7H86.84V32.7ZM53.8 32.7L52.8032 32.7797C53.0807 36.2483 53.22 41.4012 53.22 43.06H54.22H55.22C55.22 41.3588 55.0793 36.1517 54.7968 32.6203L53.8 32.7ZM54.22 43.06H53.22C53.22 51.2852 52.521 58.0452 51.4338 62.1223L52.4 62.38L53.3662 62.6377C54.519 58.3148 55.22 51.3548 55.22 43.06H54.22ZM52.4 62.38L51.8855 63.2375C53.7573 64.3606 56.8755 65.5094 60.2727 66.3764C63.6839 67.247 67.4807 67.86 70.74 67.86V66.86V65.86C67.6993 65.86 64.0761 65.283 60.7673 64.4386C57.4445 63.5906 54.5427 62.4994 52.9145 61.5225L52.4 62.38ZM70.74 66.86V67.86C77.5505 67.86 83.9343 65.1204 87.1932 62.454L86.56 61.68L85.9268 60.906C83.0257 63.2796 77.0895 65.86 70.74 65.86V66.86Z" fill="#E2E2E2" mask="url(#path-2-outside-1_9_23)"/>
<defs>
<filter id="filter0_i_9_23" x="11.08" y="21.2" width="104.9" height="95.6" filterUnits="userSpaceOnUse" color-interpolation-filters="sRGB">
<feFlood flood-opacity="0" result="BackgroundImageFix"/>
<feBlend mode="normal" in="SourceGraphic" in2="BackgroundImageFix" result="shape"/>
<feColorMatrix in="SourceAlpha" type="matrix" values="0 0 0 0 0 0 0 0 0 0 0 0 0 0 0 0 0 0 127 0" result="hardAlpha"/>
<feOffset dy="4"/>
<feGaussianBlur stdDeviation="2"/>
<feComposite in2="hardAlpha" operator="arithmetic" k2="-1" k3="1"/>
<feColorMatrix type="matrix" values="0 0 0 0 0 0 0 0 0 0 0 0 0 0 0 0 0 0 0.25 0"/>
<feBlend mode="normal" in2="shape" result="effect1_innerShadow_9_23"/>
</filter>
</defs>
</svg>
